<?xml version="1.0" standalone="no"?><!DOCTYPE svg PUBLIC "-//W3C//DTD SVG 1.1//EN" "http://www.w3.org/Graphics/SVG/1.1/DTD/svg11.dtd"><svg t="1611041261291" class="icon" viewBox="0 0 1024 1024" version="1.1" xmlns="http://www.w3.org/2000/svg" p-id="1810" xmlns:xlink="http://www.w3.org/1999/xlink" width="200" height="200"><defs><style type="text/css"></style></defs><path d="M1004.000078 472.006156H600.005656c0 43.999828-36.005859 79.999688-79.999687 79.999688h-239.999063v359.988594c0 21.983914 17.99993 39.999844 39.999844 39.999843h643.991484c21.999914 0 39.999844-17.99993 39.999844-39.999843l0.002-439.988282z" fill="#FBF7F6" p-id="1811"></path><path d="M280.008906 552.005844v-119.999532c0-21.983914 18.01593-39.999844 39.999844-39.999843H150.005414l-0.002 239.989062v119.999532c0 21.983914 17.99993 39.999844 39.999844 39.999843h90.003648l0.002-239.989062zM390.004477 392.006469H873.996586v-79.999688H470.002164c0 43.999828-36.003859 79.999688-79.997687 79.999688z" fill="#CDD3E0" p-id="1812"></path><path d="M150.005414 392.006469v-119.999532c0-21.983914 18.01593-39.999844 39.997844-39.999843H20.001922v359.988594c0 21.983914 17.99993 39.999844 39.999844 39.999843h90.003648V392.006469zM260.000984 232.007094h483.99211v-79.999688H339.998672c0 43.999828-36.003859 79.999688-79.997688 79.999688z" fill="#FBF7F6" p-id="1813"></path><path d="M381.996508 72.007719H59.999766c-21.983914 0-39.999844 18.01593-39.999844 39.999843v119.999532h239.999062c43.993828 0 79.999688-35.999859 79.999688-79.999688h403.992422v-39.999844c0-21.999914-18.01593-39.999844-39.999844-39.999843H381.996508zM512 232.007094H190.003258c-21.983914 0-39.999844 18.01593-39.999844 39.999843v119.999532h239.999063c43.993828 0 79.999688-35.999859 79.999687-79.999688H873.996586v-39.999844c0-21.999914-18.01593-39.999844-39.999844-39.999843H512z" fill="#FFC234" p-id="1814"></path><path d="M642.003492 392.006469H320.00675c-21.983914 0-39.999844 18.01593-39.999844 39.999843v119.999532h239.999063c43.993828 0 79.999688-35.999859 79.999687-79.999688h403.992422v-39.999844c0-21.999914-18.01593-39.999844-39.999844-39.999843H642.003492z" fill="#FFC234" p-id="1815"></path><path d="M1024 472.006156l-0.002-0.038v-39.961844c0-33.083871-26.915895-59.999766-59.997766-59.999765H893.996508v-99.99961c0-33.083871-26.915895-59.999766-59.999766-59.999765h-70.005726V152.045406l0.002-0.038-0.002-0.038V112.007562c0-33.083871-26.915895-59.999766-59.999766-59.999765H270.014945c-11.045957 0-19.999922 8.953965-19.999922 19.999922s8.955965 19.999922 19.999922 19.999922h433.976305c11.027957 0 19.999922 8.971965 19.999922 19.999921v19.999922H339.998672c-11.043957 0-19.999922 8.953965-19.999922 19.999922 0 33.083871-26.913895 59.999766-59.997766 59.999766H39.999844v-99.99961c0-11.027957 8.971965-19.999922 19.999922-19.999921h30.015882c11.043957 0 19.999922-8.953965 19.999922-19.999922s-8.955965-19.999922-19.999922-19.999922H59.999766c-33.083871 0-59.999766 26.915895-59.999766 59.999765v479.988126c0 33.083871 26.915895 59.999766 59.999766 59.999765h70.005726v99.99961c0 33.083871 26.915895 59.999766 59.997766 59.999765h70.003726v99.99961c0 33.083871 26.915895 59.999766 59.999766 59.999765h463.994187c11.043957 0 19.999922-8.953965 19.999922-19.999922s-8.955965-19.999922-19.999922-19.999922H320.00675c-11.027957 0-19.999922-8.971965-19.999922-19.999921V572.005766h220.001141c48.289811 0 88.697654-34.411866 97.987617-79.999688h366.00257v419.98836c0 11.027957-8.969965 19.999922-19.997922 19.999921-11.045957 0-19.999922 8.953965-19.999922 19.999922s8.953965 19.999922 19.999922 19.999922c33.081871 0 59.997766-26.915895 59.997766-59.999765V472.044156l0.002-0.038z m-554.071836-99.999609c8.757966-11.635955 15.053941-25.223901 18.06393-39.999844H853.996664v39.999844H469.928164z m384.0685-99.99961v19.999922H470.002164c-11.043957 0-19.999922 8.953965-19.999922 19.999922 0 33.083871-26.913895 59.999766-59.997765 59.999766h-219.999141v-99.99961c0-11.027957 8.969965-19.999922 19.997922-19.999921H833.996742c11.027957 0 19.999922 8.971965 19.999922 19.999921z m-496.008062-99.999609h366.00257v39.999844H339.924672c8.757966-11.635955 15.053941-25.223901 18.06393-39.999844zM59.999766 611.995609c-11.027957 0-19.999922-8.971965-19.999922-19.999921V252.007016h93.445635a59.713767 59.713767 0 0 0-3.439987 19.999921v339.988672H59.999766z m130.003492 159.999375c-11.027957 0-19.997922-8.971965-19.997922-19.999921V412.006391h93.441635a59.713767 59.713767 0 0 0-3.439987 19.999921v339.988672H190.003258z m410.002398-319.98875c-11.043957 0-19.999922 8.953965-19.999922 19.999922 0 33.083871-26.913895 59.999766-59.997765 59.999766H300.006828v-99.99961c0-11.027957 8.971965-19.999922 19.999922-19.999921h643.993484c11.027957 0 19.997922 8.971965 19.997922 19.999921v19.999922H600.005656z" p-id="1816"></path><path d="M440.014281 452.006234h-0.014c-11.043957 0-19.993922 8.953965-19.993922 19.999922s8.961965 19.999922 20.007922 19.999922c11.043957 0 19.999922-8.953965 19.999922-19.999922s-8.955965-19.999922-19.999922-19.999922zM520.017969 452.006234h-0.016c-11.045957 0-19.991922 8.953965-19.991922 19.999922s8.961965 19.999922 20.007922 19.999922c11.043957 0 19.999922-8.953965 19.999922-19.999922s-8.955965-19.999922-19.999922-19.999922zM360.012594 452.006234h-0.016c-11.045957 0-19.991922 8.953965-19.991922 19.999922s8.961965 19.999922 20.007922 19.999922c11.043957 0 19.999922-8.953965 19.999922-19.999922s-8.955965-19.999922-19.999922-19.999922zM310.010789 292.006859h-0.014c-11.045957 0-19.993922 8.953965-19.993922 19.999922s8.961965 19.999922 20.007922 19.999922c11.043957 0 19.999922-8.953965 19.999922-19.999922s-8.955965-19.999922-19.999922-19.999922zM390.014477 292.006859H389.998477c-11.043957 0-19.991922 8.953965-19.991922 19.999922s8.961965 19.999922 20.007922 19.999922c11.043957 0 19.999922-8.953965 19.999921-19.999922s-8.955965-19.999922-19.999921-19.999922zM230.009102 292.006859h-0.016c-11.043957 0-19.991922 8.953965-19.991922 19.999922s8.961965 19.999922 20.007922 19.999922c11.043957 0 19.999922-8.953965 19.999921-19.999922s-8.955965-19.999922-19.999921-19.999922zM180.007297 172.007328c11.043957 0 19.999922-8.953965 19.999922-19.999922s-8.955965-19.999922-19.999922-19.999922h-0.014c-11.043957 0-19.993922 8.953965-19.993922 19.999922s8.961965 19.999922 20.007922 19.999922zM260.010984 172.007328c11.043957 0 19.999922-8.953965 19.999922-19.999922s-8.955965-19.999922-19.999922-19.999922h-0.016c-11.043957 0-19.991922 8.953965-19.991922 19.999922s8.961965 19.999922 20.007922 19.999922zM99.989609 132.007484c-11.045957 0-19.991922 8.953965-19.991921 19.999922s8.961965 19.999922 20.007921 19.999922c11.043957 0 19.999922-8.953965 19.999922-19.999922s-8.955965-19.999922-19.999922-19.999922h-0.016zM655.841438 662.863411l-64.861747 163.525361c-4.071984 10.26796 0.949996 21.891914 11.215957 25.963898 2.419991 0.959996 4.915981 1.415994 7.369971 1.415995 7.957969 0 15.48394-4.783981 18.597927-12.631951l64.861747-163.525361c4.071984-10.26796-0.951996-21.891914-11.215956-25.965898-10.26996-4.073984-21.895914 0.949996-25.967899 11.217956zM539.285893 656.093437c-7.811969-7.809969-20.47192-7.809969-28.285889 0L429.238323 737.857118c-7.809969 7.809969-7.809969 20.47392 0 28.285889l81.761681 81.761681a19.935922 19.935922 0 0 0 14.141945 5.857977 19.943922 19.943922 0 0 0 14.141944-5.857977c7.809969-7.809969 7.809969-20.47392 0-28.28589l-67.619735-67.619735 67.619735-67.619736c7.811969-7.811969 7.811969-20.47392 0.002-28.28589zM744.719091 847.904688a19.935922 19.935922 0 0 0 14.141945 5.857977 19.935922 19.935922 0 0 0 14.141944-5.857977l81.761681-81.761681c7.809969-7.809969 7.809969-20.47392 0-28.285889l-81.761681-81.761681c-7.80797-7.80797-20.46792-7.809969-28.285889 0-7.809969 7.809969-7.809969 20.47392 0 28.28389l67.619736 67.619736-67.619736 67.619735c-7.80797 7.811969-7.80797 20.47392 0.002 28.28589zM180.023297 92.007641c11.043957 0 19.999922-8.953965 19.999922-19.999922s-8.955965-19.999922-19.999922-19.999922h-0.016c-11.043957 0-19.991922 8.953965-19.991922 19.999922s8.961965 19.999922 20.007922 19.999922zM874.006586 931.992359h-0.016c-11.043957 0-19.991922 8.953965-19.991922 19.999922s8.963965 19.999922 20.007922 19.999922c11.043957 0 19.999922-8.953965 19.999922-19.999922s-8.955965-19.999922-19.999922-19.999922z" p-id="1817"></path></svg>