<?xml version="1.0" standalone="no"?><!DOCTYPE svg PUBLIC "-//W3C//DTD SVG 1.1//EN" "http://www.w3.org/Graphics/SVG/1.1/DTD/svg11.dtd"><svg t="1611039010761" class="icon" viewBox="0 0 1024 1024" version="1.1" xmlns="http://www.w3.org/2000/svg" p-id="1515" xmlns:xlink="http://www.w3.org/1999/xlink" width="200" height="200"><defs><style type="text/css"></style></defs><path d="M139.999727 272.001469m-39.999922 0a39.999922 39.999922 0 1 0 79.999843 0 39.999922 39.999922 0 1 0-79.999843 0Z" fill="#FFC234" p-id="1516"></path><path d="M139.999727 432.001156m-39.999922 0a39.999922 39.999922 0 1 0 79.999843 0 39.999922 39.999922 0 1 0-79.999843 0Z" fill="#FFC234" p-id="1517"></path><path d="M139.999727 591.998844m-39.999922 0a39.999922 39.999922 0 1 0 79.999843 0 39.999922 39.999922 0 1 0-79.999843 0Z" fill="#FFC234" p-id="1518"></path><path d="M139.999727 751.998531m-39.999922 0a39.999922 39.999922 0 1 0 79.999843 0 39.999922 39.999922 0 1 0-79.999843 0Z" fill="#FFC234" p-id="1519"></path><path d="M500.007023 272.001469m-39.999921 0a39.999922 39.999922 0 1 0 79.999843 0 39.999922 39.999922 0 1 0-79.999843 0Z" fill="#FFC234" p-id="1520"></path><path d="M500.007023 432.001156m-39.999921 0a39.999922 39.999922 0 1 0 79.999843 0 39.999922 39.999922 0 1 0-79.999843 0Z" fill="#FFC234" p-id="1521"></path><path d="M500.007023 591.998844m-39.999921 0a39.999922 39.999922 0 1 0 79.999843 0 39.999922 39.999922 0 1 0-79.999843 0Z" fill="#FFC234" p-id="1522"></path><path d="M500.007023 751.998531m-39.999921 0a39.999922 39.999922 0 1 0 79.999843 0 39.999922 39.999922 0 1 0-79.999843 0Z" fill="#FFC234" p-id="1523"></path><path d="M259.999492 111.999781c0-21.997957-17.999965-39.999922-39.999922-39.999922H59.999883c-21.999957 0-39.999922 17.999965-39.999922 39.999922v799.998438c0 21.999957 17.999965 39.999922 39.999922 39.999922h159.999687c21.999957 0 39.999922-18.001965 39.999922-39.999922V111.999781zM139.999727 551.998922c22.091957 0 39.999922 17.909965 39.999921 39.999922s-17.909965 39.999922-39.999921 39.999922-39.999922-17.909965-39.999922-39.999922 17.909965-39.999922 39.999922-39.999922z m0 159.999687c22.091957 0 39.999922 17.909965 39.999921 39.999922s-17.909965 39.999922-39.999921 39.999922-39.999922-17.909965-39.999922-39.999922 17.909965-39.999922 39.999922-39.999922z m0-319.999375c22.091957 0 39.999922 17.909965 39.999921 39.999922s-17.909965 39.999922-39.999921 39.999922-39.999922-17.909965-39.999922-39.999922 17.909965-39.999922 39.999922-39.999922z m0-159.997687c22.091957 0 39.999922 17.909965 39.999921 39.999922s-17.909965 39.999922-39.999921 39.999922-39.999922-17.909965-39.999922-39.999922c0-22.091957 17.909965-39.999922 39.999922-39.999922zM380.005258 111.999781v799.998438c0 21.999957 18.001965 39.999922 39.999922 39.999922h543.996937c21.999957 0 39.999922-17.999965 39.999922-39.999922V111.999781c0-21.999957-17.999965-39.999922-39.999922-39.999922h-543.998937c-21.997957 0.002-39.997922 17.999965-39.997922 39.999922z m80.001844 160.001688c0-22.091957 17.909965-39.999922 39.999921-39.999922s39.999922 17.909965 39.999922 39.999922-17.909965 39.999922-39.999922 39.999922-39.999922-17.909965-39.999921-39.999922z m0 159.999687c0-22.091957 17.909965-39.999922 39.999921-39.999922s39.999922 17.909965 39.999922 39.999922-17.909965 39.999922-39.999922 39.999922-39.999922-17.909965-39.999921-39.999922z m39.999921 119.997766c22.091957 0 39.999922 17.909965 39.999922 39.999922s-17.909965 39.999922-39.999922 39.999922-39.999922-17.909965-39.999921-39.999922 17.907965-39.999922 39.999921-39.999922z m0 159.999687c22.091957 0 39.999922 17.909965 39.999922 39.999922s-17.909965 39.999922-39.999922 39.999922-39.999922-17.909965-39.999921-39.999922 17.907965-39.999922 39.999921-39.999922z" fill="#FBF7F6" p-id="1524"></path><path d="M19.999961 201.993605c11.045978 0 19.999961-8.953983 19.999961-19.99996V111.999781c0-11.027978 8.971982-19.997961 19.999961-19.997961h159.999687c11.027978 0 19.999961 8.971982 19.999961 19.997961v279.999453c0 11.045978 8.955983 19.999961 19.999961 19.999961 11.045978 0 19.999961-8.953983 19.999961-19.999961V111.999781c0-33.083935-26.915947-59.997883-59.999883-59.997883H59.999883C26.915947 52.001898 0 78.915846 0 111.999781v69.993864c0 11.045978 8.955983 19.999961 19.999961 19.99996zM259.999492 612.000805c-11.043978 0-19.999961 8.953983-19.999961 19.999961V911.998219c0 11.027978-8.971982 19.999961-19.999961 19.999961H59.999883c-11.027978 0-19.999961-8.971982-19.999961-19.999961V361.993293c0-11.045978-8.953983-19.999961-19.999961-19.999961-11.043978 0-19.999961 8.953983-19.999961 19.999961V911.998219c0 33.083935 26.915947 59.999883 59.999883 59.999883h159.999687c33.083935 0 59.999883-26.915947 59.999883-59.999883V632.000766c0-11.045978-8.953983-19.999961-19.999961-19.999961zM964.002117 52.001898h-543.998937c-33.083935 0-59.997883 26.913947-59.997883 59.997883v279.999453c0 11.045978 8.953983 19.999961 19.999961 19.999961 11.043978 0 19.999961-8.953983 19.999961-19.999961V111.999781c0-11.027978 8.969982-19.997961 19.997961-19.997961h543.998937c11.027978 0 19.997961 8.971982 19.997961 19.997961v799.998438c0 11.027978-8.969982 19.999961-19.997961 19.999961h-543.998937c-11.027978 0-19.997961-8.971982-19.997961-19.999961V632.000766c0-11.045978-8.955983-19.999961-19.999961-19.999961-11.045978 0-19.999961 8.953983-19.999961 19.999961V911.998219c0 33.083935 26.913947 59.999883 59.997883 59.999883h543.998937c33.083935 0 59.997883-26.915947 59.997883-59.999883V111.999781c0-33.083935-26.913947-59.997883-59.997883-59.997883z" p-id="1525"></path><path d="M139.999727 212.001586c-33.083935 0-59.999883 26.915947-59.999883 59.999883s26.915947 59.999883 59.999883 59.999883 59.999883-26.915947 59.999882-59.999883-26.915947-59.999883-59.999882-59.999883z m0 79.999844c-11.027978 0-19.999961-8.971982-19.999961-19.999961s8.971982-19.999961 19.999961-19.999961 19.999961 8.971982 19.999961 19.999961-8.971982 19.999961-19.999961 19.999961zM139.999727 372.001273c-33.083935 0-59.999883 26.915947-59.999883 59.999883s26.915947 59.999883 59.999883 59.999883 59.999883-26.915947 59.999882-59.999883-26.915947-59.999883-59.999882-59.999883z m0 79.999844c-11.027978 0-19.999961-8.971982-19.999961-19.999961s8.971982-19.999961 19.999961-19.999961 19.999961 8.971982 19.999961 19.999961-8.971982 19.999961-19.999961 19.999961zM139.999727 531.998961c-33.083935 0-59.999883 26.915947-59.999883 59.999883s26.915947 59.999883 59.999883 59.999883 59.999883-26.915947 59.999882-59.999883-26.915947-59.999883-59.999882-59.999883z m0 79.999844c-11.027978 0-19.999961-8.971982-19.999961-19.999961s8.971982-19.999961 19.999961-19.999961 19.999961 8.971982 19.999961 19.999961c0 11.029978-8.971982 19.999961-19.999961 19.999961zM139.999727 691.998648c-33.083935 0-59.999883 26.915947-59.999883 59.999883s26.915947 59.999883 59.999883 59.999883 59.999883-26.915947 59.999882-59.999883-26.915947-59.999883-59.999882-59.999883z m0 79.999844c-11.027978 0-19.999961-8.971982-19.999961-19.999961s8.971982-19.999961 19.999961-19.999961 19.999961 8.971982 19.999961 19.999961c0 11.029978-8.971982 19.999961-19.999961 19.999961zM500.007023 332.001352c33.083935 0 59.999883-26.915947 59.999883-59.999883s-26.915947-59.999883-59.999883-59.999883-59.999883 26.915947-59.999882 59.999883 26.915947 59.999883 59.999882 59.999883z m0-79.999844c11.027978 0 19.999961 8.971982 19.999961 19.999961s-8.971982 19.999961-19.999961 19.999961-19.999961-8.971982-19.999961-19.999961c0-11.029978 8.971982-19.999961 19.999961-19.999961zM500.007023 492.001039c33.083935 0 59.999883-26.915947 59.999883-59.999883s-26.915947-59.999883-59.999883-59.999883-59.999883 26.915947-59.999882 59.999883 26.915947 59.999883 59.999882 59.999883z m0-79.999844c11.027978 0 19.999961 8.971982 19.999961 19.999961s-8.971982 19.999961-19.999961 19.999961-19.999961-8.971982-19.999961-19.999961c0-11.029978 8.971982-19.999961 19.999961-19.999961zM500.007023 651.998727c33.083935 0 59.999883-26.915947 59.999883-59.999883s-26.915947-59.999883-59.999883-59.999883-59.999883 26.915947-59.999882 59.999883c0 33.085935 26.915947 59.999883 59.999882 59.999883z m0-79.999844c11.027978 0 19.999961 8.971982 19.999961 19.999961s-8.971982 19.999961-19.999961 19.999961-19.999961-8.971982-19.999961-19.999961 8.971982-19.999961 19.999961-19.999961zM500.007023 811.998414c33.083935 0 59.999883-26.915947 59.999883-59.999883s-26.915947-59.999883-59.999883-59.999883-59.999883 26.915947-59.999882 59.999883c0 33.085935 26.915947 59.999883 59.999882 59.999883z m0-79.999844c11.027978 0 19.999961 8.971982 19.999961 19.999961s-8.971982 19.999961-19.999961 19.999961-19.999961-8.971982-19.999961-19.999961 8.971982-19.999961 19.999961-19.999961zM620.008789 252.001508H923.998195c11.043978 0 19.999961-8.953983 19.999961-19.999961s-8.955983-19.999961-19.999961-19.999961H620.008789c-11.045978 0-19.999961 8.953983-19.999961 19.999961s8.953983 19.999961 19.999961 19.999961zM620.008789 332.001352H923.998195c11.043978 0 19.999961-8.953983 19.999961-19.999961s-8.955983-19.999961-19.999961-19.999961H620.008789c-11.045978 0-19.999961 8.953983-19.999961 19.999961s8.953983 19.999961 19.999961 19.999961zM620.008789 412.001195H923.998195c11.043978 0 19.999961-8.953983 19.999961-19.999961s-8.955983-19.999961-19.999961-19.999961H620.008789c-11.045978 0-19.999961 8.953983-19.999961 19.999961s8.953983 19.999961 19.999961 19.999961zM620.008789 492.001039H923.998195c11.043978 0 19.999961-8.953983 19.999961-19.999961s-8.955983-19.999961-19.999961-19.999961H620.008789c-11.045978 0-19.999961 8.953983-19.999961 19.999961s8.953983 19.999961 19.999961 19.999961zM620.008789 572.000883H923.998195c11.043978 0 19.999961-8.953983 19.999961-19.999961s-8.955983-19.999961-19.999961-19.999961H620.008789c-11.045978 0-19.999961 8.953983-19.999961 19.999961s8.953983 19.999961 19.999961 19.999961zM620.008789 652.000727H923.998195c11.043978 0 19.999961-8.953983 19.999961-19.999961s-8.955983-19.999961-19.999961-19.999961H620.008789c-11.045978 0-19.999961 8.953983-19.999961 19.999961s8.953983 19.999961 19.999961 19.999961zM620.008789 732.00057H923.998195c11.043978 0 19.999961-8.953983 19.999961-19.999961s-8.955983-19.999961-19.999961-19.999961H620.008789c-11.045978 0-19.999961 8.953983-19.999961 19.999961s8.953983 19.999961 19.999961 19.999961zM620.008789 812.000414h213.981582c11.043978 0 19.999961-8.953983 19.999961-19.999961s-8.955983-19.999961-19.999961-19.999961H620.008789c-11.045978 0-19.999961 8.953983-19.999961 19.999961s8.953983 19.999961 19.999961 19.999961zM386.621245 561.126904l34.983932-34.985932c7.683985-7.681985 7.697985-20.59596 0-28.283944l-34.983932-34.983932a19.999961 19.999961 0 0 0-28.283945 0.002c-7.809985 7.809985-7.809985 20.47396 0 28.283945l0.839998 0.839998h-78.351846l0.839998-0.839998c7.809985-7.809985 7.809985-20.47396 0-28.283945-7.807985-7.809985-20.46796-7.809985-28.285945-0.002l-34.983932 34.983932c-7.695985 7.685985-7.687985 20.59796 0 28.283944l34.983932 34.983932c3.905992 3.905992 9.023982 5.857989 14.141972 5.857989s10.23598-1.953996 14.141973-5.857989c7.809985-7.809985 7.809985-20.47396 0-28.283945l-0.837998-0.841998h78.355846l-0.843998 0.843998c-7.809985 7.809985-7.809985 20.47396 0 28.283945a19.935961 19.935961 0 0 0 14.141973 5.857989 19.939961 19.939961 0 0 0 14.141972-5.857989zM923.998195 772.000492h-0.016c-11.043978 0-19.991961 8.953983-19.991961 19.999961s8.963982 19.999961 20.007961 19.999961c11.043978 0 19.999961-8.953983 19.999961-19.999961s-8.955983-19.999961-19.999961-19.999961zM19.999961 292.00143c11.045978 0 19.999961-8.953983 19.999961-19.999961v-0.014c0-11.045978-8.953983-19.991961-19.999961-19.991961-11.043978 0-19.999961 8.959983-19.999961 20.005961 0 11.043978 8.955983 19.999961 19.999961 19.999961z" p-id="1526"></path></svg>