<?xml version="1.0" standalone="no"?><!DOCTYPE svg PUBLIC "-//W3C//DTD SVG 1.1//EN" "http://www.w3.org/Graphics/SVG/1.1/DTD/svg11.dtd"><svg t="1611040570642" class="icon" viewBox="0 0 1024 1024" version="1.1" xmlns="http://www.w3.org/2000/svg" p-id="1664" xmlns:xlink="http://www.w3.org/1999/xlink" width="200" height="200"><defs><style type="text/css"></style></defs><path d="M174.28166 169.14567h171.427665c9.429982 0 17.141967-7.713985 17.141966-17.141967h137.141732V106.285792c0-18.857963-15.42797-34.285933-34.285933-34.285933H54.283894c-18.857963 0-34.285933 15.42797-34.285933 34.285933v45.717911H157.139693c0 9.427982 7.713985 17.141967 17.141967 17.141967z" fill="#CDD3E0" p-id="1665"></path><path d="M345.709325 169.14567H174.28166c-9.429982 0-17.141967-7.713985-17.141967-17.141967H19.997961v683.416665h140.577725V506.289011c0-18.857963 15.42797-34.285933 34.285933-34.285933h305.131404v-319.999375h-137.141732c0 9.427982-7.711985 17.141967-17.141966 17.141967z" fill="#99EBFB" p-id="1666"></path><path d="M160.575686 835.420368H19.997961v45.717911c0 18.857963 15.42797 34.285933 34.285933 34.285933h106.293792v-80.003844z" fill="#CDD3E0" p-id="1667"></path><path d="M160.575686 506.289011V917.712208c0 18.857963 15.42797 34.285933 34.285933 34.285933h45.713911V472.005078H194.861619c-18.857963 0-34.285933 15.42597-34.285933 34.283933z" fill="#CDD3E0" p-id="1668"></path><path d="M240.57553 472.005078v479.995063h683.420665V814.858408c-9.427982 0-17.141967-7.713985-17.141966-17.141966v-171.427665c0-9.429982 7.713985-17.141967 17.141966-17.141967v-137.141732H240.57553z" fill="#99EBFB" p-id="1669"></path><path d="M906.854229 626.288777v171.427665c0 9.429982 7.713985 17.141967 17.141966 17.141966v137.141733h45.717911c18.857963 0 34.285933-15.42797 34.285933-34.285933V506.289011c0-18.857963-15.42797-34.285933-34.285933-34.285933h-45.717911v137.141732c-9.427982 0-17.141967 7.713985-17.141966 17.143967z" fill="#CDD3E0" p-id="1670"></path><path d="M969.714106 452.005117h-449.719122V106.285792c0-29.933942-24.351952-54.285894-54.285894-54.285894H54.285894C24.351952 51.999898 0 76.351851 0 106.285792v45.715911c0 11.043978 8.955983 19.999961 19.999961 19.999961h122.99576c6.609987 10.30198 18.163965 17.143967 31.287939 17.143967h171.427665c13.123974 0 24.677952-6.841987 31.285939-17.143967h102.997799v280.001453H194.863619c-29.933942 0-54.285894 24.351952-54.285894 54.285894v309.131396H39.999922v-483.419055c0-11.043978-8.953983-19.999961-19.999961-19.999961-11.043978 0-19.999961 8.955983-19.999961 19.999961V881.138279c0 29.933942 24.351952 54.285894 54.285894 54.285894H143.55972C150.919705 956.684131 171.129666 971.998102 194.863619 971.998102h774.852487c29.933942 0 54.285894-24.351952 54.285894-54.283894V506.289011c-0.002-29.933942-24.353952-54.283894-54.287894-54.283894zM362.853291 132.003742c-10.07598 0-18.411964 7.451985-19.795961 17.143967h-166.119676c-1.383997-9.693981-9.719981-17.143967-19.797961-17.143967H39.999922V106.285792C39.999922 98.409808 46.407909 91.99982 54.285894 91.99982h411.425196a14.299972 14.299972 0 0 1 14.285973 14.285972v25.71595h-117.143772zM903.998234 829.000381V931.99818H260.575491V492.005039H903.998234v102.997799c-10.30198 6.609987-17.141967 18.161965-17.141966 31.285939v171.427665c0 13.119974 6.839987 24.675952 17.141966 31.283939zM39.999922 881.138279v-25.71595h100.577803v40.001922H54.285894c-7.877985-0.002-14.285972-6.409987-14.285972-14.285972z m140.577725 36.575929V506.289011c0-7.875985 6.407987-14.285972 14.285972-14.285972h25.71195V931.99818H194.863619c-7.877985 0-14.285972-6.407987-14.285972-14.283972z m803.422431 0c0 7.875985-6.407987 14.283972-14.285972 14.283972H943.998156v-117.141772c0-10.07598-7.449985-18.409964-17.141966-19.795961v-166.117675c9.693981-1.385997 17.141967-9.719981 17.141966-19.795962v-117.141771h25.71595a14.299972 14.299972 0 0 1 14.285972 14.285972v411.423197z" p-id="1671"></path><path d="M645.856739 206.145597a19.943961 19.943961 0 0 0 14.141972 5.857989 19.939961 19.939961 0 0 0 14.141972-5.857989c7.809985-7.809985 7.809985-20.47396 0-28.285944l-5.857988-5.857989h111.713782c11.027978 0 19.999961 8.971982 19.999961 19.999961v111.713782l-5.857989-5.857989c-7.811985-7.807985-20.47196-7.807985-28.285945 0-7.809985 7.809985-7.809985 20.47396 0 28.283945l39.999922 39.999922a19.943961 19.943961 0 0 0 14.141972 5.857988 19.939961 19.939961 0 0 0 14.141973-5.857988l39.999922-39.999922c7.809985-7.809985 7.809985-20.47396 0-28.283945-7.811985-7.807985-20.47196-7.807985-28.285945 0l-5.857989 5.857989V192.003625c0-33.083935-26.915947-59.999883-59.999882-59.999883H668.278695l5.857988-5.857988c7.809985-7.809985 7.809985-20.47396 0-28.285945-7.811985-7.807985-20.47196-7.807985-28.285944 0l-39.999922 39.999922c-7.809985 7.809985-7.809985 20.47396 0 28.285944l40.005922 39.999922zM823.994391 851.998336h-109.991786c-11.045978 0-19.999961 8.955983-19.99996 19.999961s8.953983 19.999961 19.99996 19.999961h109.991786c11.043978 0 19.999961-8.955983 19.999961-19.999961 0-11.045978-8.953983-19.999961-19.999961-19.999961zM624.010781 851.998336h-0.016c-11.045978 0-19.991961 8.955983-19.991961 19.999961s8.961982 19.999961 20.007961 19.999961c11.043978 0 19.999961-8.955983 19.999961-19.999961 0-11.045978-8.955983-19.999961-19.999961-19.999961zM19.999961 262.009488c11.045978 0 19.999961-8.955983 19.999961-19.999961v-0.016c0-11.043978-8.953983-19.991961-19.999961-19.991961-11.043978 0-19.999961 8.961982-19.999961 20.007961s8.955983 19.999961 19.999961 19.999961z" p-id="1672"></path></svg>