<?xml version="1.0" standalone="no"?><!DOCTYPE svg PUBLIC "-//W3C//DTD SVG 1.1//EN" "http://www.w3.org/Graphics/SVG/1.1/DTD/svg11.dtd"><svg t="1610959351773" class="icon" viewBox="0 0 1025 1024" version="1.1" xmlns="http://www.w3.org/2000/svg" p-id="2790" xmlns:xlink="http://www.w3.org/1999/xlink" width="200.1953125" height="200"><defs><style type="text/css"></style></defs><path d="M939.6224 148.3776c112.51712 112.45568 112.51712 294.8096 0 407.26528l-350.94528 350.98624c-12.51328 12.53376-32.72704 12.53376-45.24032 0-12.57472-12.51328-12.57472-32.70656 0-45.24032l346.43968-346.46016c87.49056-87.49056 87.49056-229.25312-0.06144-316.76416-87.36768-87.49056-229.25312-87.49056-316.74368 0l-462.29504 456.86784c-62.50496 62.464-62.50496 163.77856 0 226.24256 62.50496 62.50496 163.7376 62.50496 226.24256 0l466.88256-461.35296c37.43744-37.43744 37.43744-98.34496 0-135.7824-37.43744-37.41696-98.304-37.41696-135.74144 0l-351.00672 351.00672c-12.51328 12.51328-32.72704 12.51328-45.24032 0-12.51328-12.55424-12.51328-32.72704 0-45.28128l350.98624-350.96576c62.42304-62.464 163.7376-62.464 226.24256 0 62.50496 62.50496 62.50496 163.77856 0 226.26304l-466.88256 461.37344c-87.30624 87.32672-229.41696 87.32672-316.74368 0s-87.32672-229.4784 0-316.80512l466.88256-461.35296c112.45568-112.51712 294.8096-112.51712 407.26528 0z" p-id="2791" fill="#ffffff"></path></svg>