<?xml version="1.0" standalone="no"?><!DOCTYPE svg PUBLIC "-//W3C//DTD SVG 1.1//EN" "http://www.w3.org/Graphics/SVG/1.1/DTD/svg11.dtd"><svg t="1610959441868" class="icon" viewBox="0 0 1024 1024" version="1.1" xmlns="http://www.w3.org/2000/svg" p-id="3362" xmlns:xlink="http://www.w3.org/1999/xlink" width="200" height="200"><defs><style type="text/css"></style></defs><path d="M1022.8736 504.832c-0.32768-1.35168-0.12288-2.78528-0.63488-4.096-0.18432-0.55296-0.67584-0.83968-0.86016-1.35168-0.32768-0.75776-0.24576-1.6384-0.67584-2.37568-92.79488-177.62304-294.8096-304.90624-507.94496-304.90624-213.15584 0-415.1296 127.0784-508.0064 304.68096-0.4096 0.73728-0.34816 1.59744-0.67584 2.37568-0.22528 0.512-0.67584 0.79872-0.86016 1.35168-0.512 1.31072-0.32768 2.74432-0.63488 4.096-0.57344 2.39616-1.1264 4.7104-1.1264 7.168s0.57344 4.73088 1.1264 7.168c0.32768 1.35168 0.12288 2.78528 0.63488 4.096 0.18432 0.55296 0.67584 0.83968 0.86016 1.35168 0.32768 0.77824 0.26624 1.6384 0.67584 2.37568 92.83584 177.62304 294.85056 304.90624 508.0064 304.90624 213.11488 0 415.1296-127.0784 507.94496-304.68096 0.45056-0.73728 0.38912-1.59744 0.67584-2.37568 0.18432-0.512 0.67584-0.79872 0.86016-1.35168 0.512-1.31072 0.32768-2.74432 0.63488-4.096 0.55296-2.43712 1.1264-4.73088 1.1264-7.168s-0.57344-4.77184-1.1264-7.168zM512.73728 767.61088c-179.67104 0-355.59424-102.11328-443.22816-255.83616 88.12544-153.92768 263.7824-255.67232 443.22816-255.67232 179.6096 0 355.55328 102.13376 443.20768 255.83616-88.12544 153.94816-263.74144 255.67232-443.20768 255.67232zM512.73728 383.95904c8.82688 0 15.93344 7.12704 15.93344 15.99488 0 8.8064-7.12704 15.9744-15.93344 15.9744l0 0.04096c-52.92032 0-95.96928 43.04896-95.96928 95.90784 0 8.82688-7.168 15.99488-15.9744 15.99488-8.82688 0-15.99488-7.168-15.99488-15.99488 0-70.5536 57.18016-127.75424 127.75424-127.87712 0.06144 0 0.12288-0.04096 0.18432-0.04096zM512 288.01024c-123.74016 0-224.01024 100.29056-224.01024 224.01024s100.29056 224.01024 224.01024 224.01024c123.67872 0 224.01024-100.31104 224.01024-224.01024 0-123.74016-100.31104-224.01024-224.01024-224.01024zM512 704c-105.8816 0-192-86.1184-192-192s86.1184-192 192-192c105.8816 0 192 86.1184 192 192s-86.1184 192-192 192z" p-id="3363" fill="#ffffff"></path></svg>