<?xml version="1.0" standalone="no"?><!DOCTYPE svg PUBLIC "-//W3C//DTD SVG 1.1//EN" "http://www.w3.org/Graphics/SVG/1.1/DTD/svg11.dtd"><svg t="1610959539059" class="icon" viewBox="0 0 1024 1024" version="1.1" xmlns="http://www.w3.org/2000/svg" p-id="3543" xmlns:xlink="http://www.w3.org/1999/xlink" width="200" height="200"><defs><style type="text/css"></style></defs><path d="M940.637827 82.553229c-52.632547-52.571109-121.955961-82.553229-190.275874-82.553229-57.629567 0-110.692186 21.380692-149.439571 60.066639l-155.747285 156.935101c-0.471031 0.450551-1.02398 0.737265-1.49501 1.208296-0.245755 0.266235-0.409592 0.614388-0.675826 0.839663l0.061439 0.061439-330.52011 333.080058c-15.236815 15.134417-26.275314 33.97564-32.419192 54.557629l-75.160097 272.255675c-0.061439 0.737265-4.956061 22.117958-4.956061 32.99262 0 61.827883 50.215956 112.00288 112.125757 112.00288 12.328713 0 36.166957-5.898122 37.027099-6.021l271.293134-71.330413c20.602468-6.102918 39.320814-17.243815 54.557629-32.50111l488.397272-492.247435c88.840463-88.901902 78.805464-237.890922-22.793784-339.326333zM512.450551 761.431171c-2.621388-28.855743-10.792744-57.179016-22.99858-84.068719l302.544989-302.52451c18.49307 58.428271 8.99054 119.539369-31.559049 160.129917-0.266235 0.245755-0.573429 0.409592-0.798704 0.675826l0.450551 0.409592-247.291054 249.277574c0-7.966561 0.389112-15.769285-0.348153-23.899682zM473.375492 648.179036c-11.939601-19.619448-25.49709-38.563069-42.310834-55.335853-19.558009-19.558009-41.98316-34.876742-65.411812-47.737925l305.02302-305.02302c23.940641 10.628907 46.877782 25.763325 67.132097 46.01764 17.305254 17.243815 30.678426 36.576548 41.00014 56.667027l-305.432611 305.391652zM335.547849 529.970841c-29.633967-11.939601-60.681026-18.759305-91.769045-19.168897l246.49235-248.376472c37.723406-36.801824 92.670147-47.389772 146.777224-33.97564l-301.50053 301.52101zM133.352853 955.925841c-3.48153 0.798704-14.335713 3.542969-21.687886 4.054959-26.295794-0.327673-47.656007-21.687886-47.656007-48.00416 0.389112-5.365653 2.51899-14.622428 3.256255-17.98108l33.688926-122.037879c36.576548-0.98302 75.938321 13.250295 106.882982 44.256395 31.415692 31.354253 46.201956 71.49425 44.604548 108.50087l-119.109298 31.190416zM283.98024 916.359273c-0.757745-42.945701-18.247315-87.611688-53.51317-122.816104-33.340773-33.381732-76.98278-52.632547-120.50191-54.373313l31.866243-115.422972c2.293714-7.679846 6.881142-15.257295 12.51303-21.892682 64.183036-45.956201 162.915142-32.378232 231.48081 36.248875 72.538709 72.51823 83.741045 178.745865 27.872723 242.171157-3.706806 1.945561-7.454571 3.809204-11.48905 4.99702l-118.228675 31.067539zM918.110278 376.701586l-53.881802 54.311874c0-7.229295 0.860143-14.171877 0.184316-21.565009-5.631887-61.909802-34.48763-121.792124-81.365413-168.608468-52.120558-52.161517-121.239175-82.082198-189.702446-82.266515l52.9807-53.431251c26.52107-26.459631 63.548169-41.123018 104.036319-41.123018 51.48569 0 104.384472 23.305774 145.056939 63.834883 38.173957 38.112518 60.926781 85.461331 64.183036 133.383572 3.0105 44.706946-11.734805 85.686606-41.51213 115.48441z" p-id="3544" fill="#ffffff"></path></svg>